<svg width="149" height="220" viewBox="0 0 149 220" fill="none" xmlns="http://www.w3.org/2000/svg">
<path d="M7.5 28C7.5 22.7533 11.7533 18.5 17 18.5H132C137.247 18.5 141.5 22.7533 141.5 28V203C141.5 208.247 137.247 212.5 132 212.5H17C11.7533 212.5 7.5 208.247 7.5 203V28Z" stroke="#FFAA00"/>
<rect x="22" y="6" width="106" height="23" rx="10" fill="#FFAA00"/>
<rect x="22" y="174" width="106" height="31" rx="5" fill="#FFAA00" fill-opacity="0.5"/>
<path d="M121.945 190.955C121.834 192.143 121.756 194.244 122.457 195.139C122.457 195.139 122.127 192.83 125.086 189.934C126.277 188.768 126.553 187.182 126.137 185.992C125.9 185.318 125.469 184.762 125.094 184.373C124.875 184.145 125.043 183.768 125.361 183.781C127.287 183.867 130.408 184.402 131.734 187.73C132.316 189.191 132.359 190.701 132.082 192.236C131.906 193.217 131.281 195.396 132.707 195.664C133.725 195.855 134.217 195.047 134.437 194.465C134.529 194.223 134.848 194.162 135.02 194.355C136.738 196.311 136.885 198.613 136.529 200.596C135.842 204.428 131.961 207.217 128.105 207.217C123.289 207.217 119.455 204.461 118.461 199.473C118.061 197.459 118.264 193.475 121.369 190.662C121.6 190.451 121.977 190.639 121.945 190.955Z" fill="url(#paint0_radial_39_52)"/>
<path d="M129.865 198.121C128.09 195.836 128.885 193.228 129.32 192.189C129.379 192.053 129.223 191.924 129.1 192.008C128.336 192.527 126.771 193.75 126.043 195.471C125.057 197.797 125.127 198.936 125.711 200.326C126.063 201.164 125.654 201.342 125.449 201.373C125.25 201.404 125.066 201.271 124.92 201.133C124.499 200.728 124.198 200.214 124.053 199.648C124.021 199.527 123.863 199.494 123.791 199.594C123.244 200.35 122.961 201.562 122.947 202.42C122.904 205.07 125.094 207.219 127.742 207.219C131.08 207.219 133.512 203.527 131.594 200.441C131.037 199.543 130.514 198.955 129.865 198.121Z" fill="url(#paint1_radial_39_52)"/>
<path d="M80.1459 177.159C80.2395 177.066 80.3663 177.013 80.4985 177.013C80.6308 177.013 80.7576 177.066 80.8511 177.159L82.9933 179.297L85.1356 177.159C85.1966 177.093 85.2741 177.045 85.3601 177.02C85.4461 176.995 85.5373 176.993 85.6242 177.015C85.711 177.038 85.7902 177.083 85.8535 177.146C85.9168 177.209 85.9618 177.289 85.9838 177.375C86.006 177.462 86.0045 177.553 85.9793 177.639C85.9541 177.724 85.9063 177.802 85.8408 177.863L83.6985 180L85.8408 182.138C85.9064 182.199 85.9545 182.276 85.9798 182.362C86.005 182.448 86.0067 182.539 85.9845 182.626C85.9623 182.712 85.9171 182.791 85.8536 182.854C85.7901 182.918 85.7108 182.962 85.6239 182.984C85.5371 183.007 85.446 183.005 85.3601 182.98C85.2742 182.955 85.1966 182.907 85.1356 182.842L82.9933 180.704L80.8511 182.842C80.7565 182.93 80.6314 182.977 80.5021 182.975C80.3728 182.973 80.2494 182.921 80.1579 182.83C80.0666 182.738 80.0143 182.615 80.0121 182.486C80.0099 182.357 80.0578 182.232 80.1459 182.138L82.2881 180L80.1459 177.863C80.0525 177.769 80 177.643 80 177.511C80 177.379 80.0525 177.252 80.1459 177.159Z" fill="#F54830" stroke="#F54830"/>
<defs>
<radialGradient id="paint0_radial_39_52" cx="0" cy="0" r="1" gradientUnits="userSpaceOnUse" gradientTransform="translate(127.152 207.278) rotate(-179.751) scale(13.7867 22.6211)">
<stop offset="0.314" stop-color="#FF9800"/>
<stop offset="0.662" stop-color="#FF6D00"/>
<stop offset="0.972" stop-color="#F44336"/>
</radialGradient>
<radialGradient id="paint1_radial_39_52" cx="0" cy="0" r="1" gradientUnits="userSpaceOnUse" gradientTransform="translate(127.926 193.558) rotate(90.5787) scale(14.4251 10.856)">
<stop offset="0.214" stop-color="#FFF176"/>
<stop offset="0.328" stop-color="#FFF27D"/>
<stop offset="0.487" stop-color="#FFF48F"/>
<stop offset="0.672" stop-color="#FFF7AD"/>
<stop offset="0.793" stop-color="#FFF9C4"/>
<stop offset="0.822" stop-color="#FFF8BD" stop-opacity="0.804"/>
<stop offset="0.863" stop-color="#FFF6AB" stop-opacity="0.529"/>
<stop offset="0.91" stop-color="#FFF38D" stop-opacity="0.209"/>
<stop offset="0.941" stop-color="#FFF176" stop-opacity="0"/>
</radialGradient>
</defs>
</svg>
