<!DOCTYPE svg PUBLIC "-//W3C//DTD SVG 1.1//EN" "http://www.w3.org/Graphics/SVG/1.1/DTD/svg11.dtd">
<!-- Uploaded to: SVG Repo, www.svgrepo.com, Transformed by: SVG Repo Mixer Tools -->
<svg width="800px" height="800px" viewBox="-10.56 -10.56 45.12 45.12" xmlns="http://www.w3.org/2000/svg" fill="#000000">
<g id="SVGRepo_bgCarrier" stroke-width="0">
<rect x="-10.56" y="-10.56" width="45.12" height="45.12" rx="22.56" fill="#FFAA00" strokewidth="0"/>
</g>
<g id="SVGRepo_tracerCarrier" stroke-linecap="round" stroke-linejoin="round"/>
<g id="SVGRepo_iconCarrier"> <path fill="none" stroke="#ffffff" stroke-width="2.112" d="M8,11 C10.7614237,11 13,8.76142375 13,6 C13,3.23857625 10.7614237,1 8,1 C5.23857625,1 3,3.23857625 3,6 C3,8.76142375 5.23857625,11 8,11 Z M14.6431888,15.6961461 C14.3091703,14.6675626 13.7524493,13.7598949 13.0233822,13.0234994 C11.7718684,11.7594056 10.0125018,11 8,11 C4,11 1,14 1,18 L1,23 L11,23 M12,18.8235294 L16.1904762,22 L23,13"/> </g>
</svg>